<svg width="65" height="65" viewBox="0 0 65 65" fill="none" xmlns="http://www.w3.org/2000/svg">
<path fill-rule="evenodd" clip-rule="evenodd" d="M32.5 0C14.5507 0 0 14.5507 0 32.5C0 50.4493 14.5507 65 32.5 65C50.4493 65 65 50.4493 65 32.5C65 14.5507 50.4493 0 32.5 0ZM15.6022 26.9179H22.9674V49.0473H15.6022V26.9179ZM23.4525 20.0724C23.4047 17.9026 21.8531 16.25 19.3335 16.25C16.8139 16.25 15.1667 17.9026 15.1667 20.0724C15.1667 22.1972 16.7652 23.8974 19.2379 23.8974H19.2849C21.8531 23.8974 23.4525 22.1972 23.4525 20.0724ZM41.049 26.3983C45.8957 26.3983 49.5292 29.5618 49.5292 36.359L49.5289 49.0473H42.164V37.2081C42.164 34.2343 41.0982 32.2051 38.4319 32.2051C36.3971 32.2051 35.1851 33.5731 34.6528 34.8944C34.4581 35.3679 34.4103 36.0276 34.4103 36.689V49.0479H27.0442C27.0442 49.0479 27.1413 28.995 27.0442 26.9185H34.4103V30.053C35.3878 28.5462 37.1386 26.3983 41.049 26.3983Z" fill="white"/>
</svg>
