<svg width="65" height="65" viewBox="0 0 65 65" fill="none" xmlns="http://www.w3.org/2000/svg">
<path fill-rule="evenodd" clip-rule="evenodd" d="M32.5 0C14.5507 0 0 14.5507 0 32.5C0 50.4493 14.5507 65 32.5 65C50.4493 65 65 50.4493 65 32.5C65 14.5507 50.4493 0 32.5 0ZM32.4511 35.2345L20.3107 26.4218V44.999H18.2825C17.1525 44.999 16.2543 44.1007 16.2543 42.9707V22.4276C16.2543 22.3416 16.2595 22.261 16.2696 22.1854C16.3063 21.8632 16.4239 21.5477 16.6309 21.2687C17.2973 20.3705 18.6012 20.1676 19.5284 20.834L32.4801 30.2508L45.5187 20.7181C46.4169 20.0517 47.6918 20.2546 48.3582 21.1817C48.7125 21.6592 48.8211 22.243 48.7059 22.7854V42.9997C48.7059 44.1007 47.8077 44.999 46.6777 44.999H44.6494V26.3775L32.4511 35.2345Z" fill="white"/>
</svg>
